<?xml version="1.0" standalone="no"?>
<!DOCTYPE svg PUBLIC "-//W3C//DTD SVG 20010904//EN"
 "http://www.w3.org/TR/2001/REC-SVG-20010904/DTD/svg10.dtd">
<svg version="1.0" xmlns="http://www.w3.org/2000/svg"
 width="260.000000pt" height="260.000000pt" viewBox="0 0 260.000000 260.000000"
 preserveAspectRatio="xMidYMid meet">
<metadata>
Created by potrace 1.11, written by Peter Selinger 2001-2013
</metadata>
<g transform="translate(0.000000,260.000000) scale(0.100000,-0.100000)"
fill="#000000" stroke="none">
<path d="M361 2584 c-100 -27 -196 -90 -265 -174 -29 -36 -75 -140 -85 -195
-6 -30 -10 -401 -10 -932 0 -972 -4 -909 62 -1038 56 -111 202 -214 332 -235
36 -6 402 -10 926 -10 846 1 867 1 934 22 175 52 306 199 335 374 6 36 10 401
9 931 0 858 -1 874 -21 935 -26 78 -72 152 -130 208 -49 49 -160 105 -233 119
-30 6 -398 10 -925 10 -727 -1 -884 -3 -929 -15z"/>
</g>
</svg>
